<svg class="animated" id="freepik_stories-delivery" xmlns="http://www.w3.org/2000/svg" viewBox="0 0 500 500" version="1.1" xmlns:xlink="http://www.w3.org/1999/xlink" xmlns:svgjs="http://svgjs.com/svgjs"><style>svg#freepik_stories-delivery:not(.animated) .animable {opacity: 0;}svg#freepik_stories-delivery.animated #freepik--Shadow--inject-2 {animation: 1.5s Infinite  linear floating;animation-delay: 0s;}svg#freepik_stories-delivery.animated #freepik--background-complete--inject-2 {animation: 1.5s Infinite  linear floating;animation-delay: 0s;}svg#freepik_stories-delivery.animated #freepik--character-1--inject-2 {animation: 1s 1 forwards cubic-bezier(.36,-0.01,.5,1.38) slideRight,1.5s Infinite  linear floating;animation-delay: 0s,1s;}svg#freepik_stories-delivery.animated #freepik--character-2--inject-2 {animation: 1s 1 forwards cubic-bezier(.36,-0.01,.5,1.38) slideLeft,1.5s Infinite  linear floating;animation-delay: 0s,1s;}            @keyframes floating {                0% {                    opacity: 1;                    transform: translateY(0px);                }                50% {                    transform: translateY(-10px);                }                100% {                    opacity: 1;                    transform: translateY(0px);                }            }                    @keyframes slideRight {                0% {                    opacity: 0;                    transform: translateX(30px);                }                100% {                    opacity: 1;                    transform: translateX(0);                }            }                    @keyframes slideLeft {                0% {                    opacity: 0;                    transform: translateX(-30px);                }                100% {                    opacity: 1;                    transform: translateX(0);                }            }        </style><g id="freepik--Shadow--inject-2" class="animable" style="transform-origin: 250px 416.24px;"><g id="freepik--Shape--inject-2" class="animable" style="transform-origin: 250px 416.24px;"><ellipse id="freepik--path--inject-76--inject-2" cx="250" cy="416.24" rx="193.89" ry="11.32" style="fill: rgb(245, 245, 245); transform-origin: 250px 416.24px;" class="animable"></ellipse></g></g><g id="freepik--background-complete--inject-2" class="animable" style="transform-origin: 250.12px 224.38px;"><rect x="0.12" y="381.96" width="500" height="0.25" style="fill: rgb(224, 224, 224); transform-origin: 250.12px 382.085px;" id="el53f545ttxpm" class="animable"></rect><rect x="51.77" y="393.95" width="57.77" height="0.25" style="fill: rgb(224, 224, 224); transform-origin: 80.655px 394.075px;" id="elurylvm6k96" class="animable"></rect><rect x="209.46" y="388.52" width="26.32" height="0.25" style="fill: rgb(224, 224, 224); transform-origin: 222.62px 388.645px;" id="elk19pse3ney" class="animable"></rect><rect x="245.4" y="388.39" width="51.28" height="0.25" style="fill: rgb(224, 224, 224); transform-origin: 271.04px 388.515px;" id="el57ivzynjgwi" class="animable"></rect><rect x="381.8" y="391.39" width="12.49" height="0.25" style="fill: rgb(224, 224, 224); transform-origin: 388.045px 391.515px;" id="elet4wg9se994" class="animable"></rect><rect x="288.85" y="391.39" width="49.82" height="0.25" style="fill: rgb(224, 224, 224); transform-origin: 313.76px 391.515px;" id="elpjj4asqj0r" class="animable"></rect><rect x="119.22" y="393.95" width="9.9" height="0.25" style="fill: rgb(224, 224, 224); transform-origin: 124.17px 394.075px;" id="el2bo4nv4aq6c" class="animable"></rect><rect x="402.45" y="391.39" width="43.25" height="0.25" style="fill: rgb(224, 224, 224); transform-origin: 424.075px 391.515px;" id="elk9744p14jn9" class="animable"></rect><path d="M237.12,54.56H44a5.72,5.72,0,0,0-5.45,4,5.37,5.37,0,0,0-.25,1.61V331.65a5.71,5.71,0,0,0,5.7,5.71H237.12a5.71,5.71,0,0,0,5.71-5.71V60.27A5.71,5.71,0,0,0,237.12,54.56Zm5.46,277.09a5.47,5.47,0,0,1-5.46,5.46H44a5.46,5.46,0,0,1-5.45-5.46V60.22A5.46,5.46,0,0,1,44,54.76H237.12a5.48,5.48,0,0,1,5.46,5.46Z" style="fill: rgb(224, 224, 224); transform-origin: 140.565px 195.96px;" id="el0pwqz6ku2xtl" class="animable"></path><path d="M453.43,54.56H260.33a5.72,5.72,0,0,0-5.71,5.66V331.65a5.71,5.71,0,0,0,5.71,5.71h193.1a5.71,5.71,0,0,0,5.69-5.71V60.22A5.71,5.71,0,0,0,453.43,54.56Zm5.46,277.09a5.47,5.47,0,0,1-5.46,5.46H260.33a5.46,5.46,0,0,1-5.46-5.46V60.22a5.47,5.47,0,0,1,5.46-5.46h193.1a5.48,5.48,0,0,1,5.46,5.46Z" style="fill: rgb(224, 224, 224); transform-origin: 356.87px 195.96px;" id="el5suyfywk55m" class="animable"></path><path d="M371.15,103.69H477s-6.39-11.58-19.57-8c0,0,1.6-19.35-8.79-22.45s-16,8.87-16,8.87-7.19-22.37-20.77-19.57-19.17,26-19.17,26S372.75,81.32,371.15,103.69Z" style="fill: rgb(245, 245, 245); transform-origin: 424.075px 82.9938px;" id="elgcp0dpauzcd" class="animable"></path><path d="M218.11,141.56H324s-6.4-11.59-19.58-8c0,0,1.6-19.35-8.79-22.46s-16,8.88-16,8.88-7.19-22.37-20.77-19.58-19.18,26-19.18,26S219.71,119.19,218.11,141.56Z" style="fill: rgb(245, 245, 245); transform-origin: 271.055px 120.86px;" id="el45fbgx1zrgd" class="animable"></path><rect x="38.66" y="70.2" width="177.53" height="311.76" style="fill: rgb(245, 245, 245); transform-origin: 127.425px 226.08px;" id="elnw6ubbedip" class="animable"></rect><rect x="74.07" y="169.76" width="112.54" height="212.45" style="fill: rgb(250, 250, 250); transform-origin: 130.34px 275.985px;" id="elvjz0ck6x7rs" class="animable"></rect><rect x="82.18" y="176.51" width="97.32" height="205.7" style="fill: rgb(230, 230, 230); transform-origin: 130.84px 279.36px;" id="elo218a7r9n4" class="animable"></rect><path d="M222.62,72.47h-184V58.61a6.24,6.24,0,0,1,6-4H216.33l.08.2,4.51,12.87Z" style="fill: rgb(235, 235, 235); transform-origin: 130.62px 63.5388px;" id="el9y1rdptbm9q" class="animable"></path><ellipse cx="47.54" cy="72.47" rx="9.21" ry="8.37" style="fill: rgb(235, 235, 235); transform-origin: 47.54px 72.47px;" id="elz28za5sx44" class="animable"></ellipse><ellipse cx="65.97" cy="72.47" rx="9.21" ry="8.37" style="fill: rgb(235, 235, 235); transform-origin: 65.97px 72.47px;" id="el058lt24qhme9" class="animable"></ellipse><ellipse cx="84.4" cy="72.47" rx="9.21" ry="8.37" style="fill: rgb(235, 235, 235); transform-origin: 84.4px 72.47px;" id="el3voijxhprhq" class="animable"></ellipse><ellipse cx="102.83" cy="72.47" rx="9.21" ry="8.37" style="fill: rgb(235, 235, 235); transform-origin: 102.83px 72.47px;" id="elflr8trkhqfs" class="animable"></ellipse><ellipse cx="121.26" cy="72.47" rx="9.21" ry="8.37" style="fill: rgb(235, 235, 235); transform-origin: 121.26px 72.47px;" id="el6j7rw5cxsbm" class="animable"></ellipse><ellipse cx="139.69" cy="72.47" rx="9.21" ry="8.37" style="fill: rgb(235, 235, 235); transform-origin: 139.69px 72.47px;" id="elxtd7ebohokm" class="animable"></ellipse><ellipse cx="158.11" cy="72.47" rx="9.21" ry="8.37" style="fill: rgb(235, 235, 235); transform-origin: 158.11px 72.47px;" id="el4f8vq5mor5r" class="animable"></ellipse><ellipse cx="176.54" cy="72.47" rx="9.21" ry="8.37" style="fill: rgb(235, 235, 235); transform-origin: 176.54px 72.47px;" id="elmrto7zsfrd" class="animable"></ellipse><ellipse cx="194.97" cy="72.47" rx="9.21" ry="8.37" style="fill: rgb(235, 235, 235); transform-origin: 194.97px 72.47px;" id="elt13cbvuuh3i" class="animable"></ellipse><path d="M222.62,72.47c0,4.62-4.13,8.37-9.22,8.37s-9.22-3.75-9.22-8.37,4.13-8.37,9.22-8.37a9.49,9.49,0,0,1,7.52,3.53Z" style="fill: rgb(235, 235, 235); transform-origin: 213.4px 72.4695px;" id="elk7f4nz5a3d8" class="animable"></path><rect x="38.66" y="97.26" width="177.53" height="2.92" style="fill: rgb(250, 250, 250); transform-origin: 127.425px 98.72px;" id="elar4ao9kwu8o" class="animable"></rect><rect x="216.2" y="315.88" width="137.7" height="6.19" style="fill: rgb(224, 224, 224); transform-origin: 285.05px 318.975px;" id="elgd5xcbec1h5" class="animable"></rect><polygon points="245.16 381.95 224.37 381.95 224.37 285.46 234.76 276.58 245.16 285.46 245.16 381.95" style="fill: rgb(230, 230, 230); transform-origin: 234.765px 329.265px;" id="ellb14j10jyu" class="animable"></polygon><polygon points="274.94 381.95 254.15 381.95 254.15 285.46 264.55 276.58 274.94 285.46 274.94 381.95" style="fill: rgb(230, 230, 230); transform-origin: 264.545px 329.265px;" id="elovqel0s7si" class="animable"></polygon><polygon points="304.73 381.95 283.94 381.95 283.94 285.46 294.33 276.58 304.73 285.46 304.73 381.95" style="fill: rgb(230, 230, 230); transform-origin: 294.335px 329.265px;" id="el0lzfrghqjaw" class="animable"></polygon><polygon points="334.51 381.95 313.72 381.95 313.72 285.46 324.12 276.58 334.51 285.46 334.51 381.95" style="fill: rgb(230, 230, 230); transform-origin: 324.115px 329.265px;" id="elq3hk33o7c6" class="animable"></polygon><polygon points="364.29 381.95 343.51 381.95 343.51 285.46 353.9 276.58 364.29 285.46 364.29 381.95" style="fill: rgb(230, 230, 230); transform-origin: 353.9px 329.265px;" id="elhnjjqozk4vr" class="animable"></polygon></g><g id="freepik--character-1--inject-2" class="animable" style="transform-origin: 155.009px 250.667px;"><path d="M149.47,89.58s-1.93-4.72-13.82-3.32-13.12,17.14-19.06,28.33-12.25,16.62-12.25,16.62-.87,6.82,12.07,10.67,38.3-2.58,38.3-2.58,3.28-29.79-1.59-38.88S149.47,89.58,149.47,89.58Z" style="fill: rgb(38, 50, 56); transform-origin: 130.059px 114.554px;" id="elt7e4nql0ns" class="animable"></path><path d="M184.23,387.15l-16.11,1s-6.83-62.08-14.35-107.28c0-.15,0-.32-.07-.49-3.08-18.45-6.27-34-9.15-41.29,0,0-3.7,57.87-4.8,83.56s-6.23,70.64-6.23,70.64l-14.89,2.21s-2.46-89.48-1-106.38-5.19-79.5,6.27-95h41.45s16.05,87.94,17.21,112.32S184.23,387.15,184.23,387.15Z" style="fill: rgb(38, 50, 56); transform-origin: 150.622px 294.81px;" id="el0k4j5o6gumid" class="animable"></path><polygon points="130.02 393.49 129.78 398.29 129.22 409.4 120.88 410.64 120.69 398.65 120.62 394.04 130.02 393.49" style="fill: rgb(255, 139, 123); transform-origin: 125.32px 402.065px;" id="el4zxglfnma8" class="animable"></polygon><path d="M180.65,405.66l-9.33,2.6s-.22-5.61-.44-11c-.14-3.47-.28-6.85-.37-8.58,0-.67-.06-1.08-.08-1.17l10.06-1,0,3.16.07,7.14Z" style="fill: rgb(255, 139, 123); transform-origin: 175.54px 397.385px;" id="el44l3u9eu398" class="animable"></path><path d="M132.58,406.94s1.55-6.21,4-5.9S132.58,406.94,132.58,406.94Z" style="fill: none; stroke: #00FF88; stroke-miterlimit: 10; transform-origin: 134.858px 403.984px;" id="el4mex9y6bd4h" class="animable"></path><path d="M133.28,406.94s5.83-4.11,6.91-2S133.28,406.94,133.28,406.94Z" style="fill: none; stroke: #00FF88; stroke-miterlimit: 10; transform-origin: 136.785px 405.639px;" id="el4ak85kluxpm" class="animable"></path><path d="M184.23,407.57S185.53,401,187,401,184.23,407.57,184.23,407.57Z" style="fill: none; stroke: #00FF88; stroke-miterlimit: 10; transform-origin: 185.77px 404.285px;" id="elbv90t2cl9ll" class="animable"></path><path d="M183.92,409.61s3.42-6.73,5.21-5.28S183.92,409.61,183.92,409.61Z" style="fill: none; stroke: #00FF88; stroke-miterlimit: 10; transform-origin: 186.671px 406.868px;" id="elhahur9tg9ec" class="animable"></path><path d="M139.86,415s-17.78.46-19.07.3-2.72-.23-2.82-1.63c0-.68.61-4.81.71-6.25s-.26-2.19,1.55-2.65,10.6-1.48,11.66-.39,4.68,5.24,7.36,5.72,4.93.29,5.12,1.81S144.62,414.89,139.86,415Z" style="fill: rgb(38, 50, 56); transform-origin: 131.201px 409.614px;" id="elqeptt2c78c" class="animable"></path><path d="M191.05,415s-17.77.46-19.07.3-2.58-.55-2.79-1.2.59-5.24.68-6.68-.26-2.19,1.55-2.65,10.6-1.48,11.66-.39,4.68,5.24,7.37,5.72,4.92.29,5.11,1.81S195.81,414.89,191.05,415Z" style="fill: rgb(38, 50, 56); transform-origin: 182.389px 409.614px;" id="elbsyxi7kbewr" class="animable"></path><g id="elk2ado3obfn"><path d="M153.7,280.37c-3.08-18.45-6.27-34-9.15-41.29l1.91-10.48S151.41,266,153.7,280.37Z" style="opacity: 0.3; transform-origin: 149.125px 254.485px;" class="animable" id="el0cviukmjmqlv"></path></g><g id="elgvr2ap55buk"><path d="M130,393.49l-.24,4.8c-2.34.09-7,.26-9.09.36l-.07-4.61Z" style="opacity: 0.2; transform-origin: 125.3px 396.07px;" class="animable" id="elva7doll8h9k"></path></g><g id="eldlo4hcntr3f"><path d="M180.58,396.8l-9.7.46c-.14-3.47-.28-6.85-.37-8.58l10,1Z" style="opacity: 0.2; transform-origin: 175.545px 392.97px;" class="animable" id="el8wokj11bvpw"></path></g><polygon points="186.98 386.5 185.49 394.11 167.73 395.49 165.4 386.5 186.98 386.5" style="fill: #00FF88; transform-origin: 176.19px 390.995px;" id="el3i17mkw090d" class="animable"></polygon><polygon points="135.91 388.98 134.35 396.5 115.81 397.38 115.82 388.98 135.91 388.98" style="fill: #00FF88; transform-origin: 125.86px 393.18px;" id="elmp3cqkfg5f" class="animable"></polygon><path d="M190.9,170.89c-4,1.91-15,4-15,4s-7.2-18.61-9.1-29.19a17.7,17.7,0,0,0-15.23-14.8c-4.86-.63-25.38-.42-32.58,1.06s-8.45,12.05-9.09,18.4-4.65,30-1.27,37,15.23,4.22,15.23,4.22v2.54h41.46l-1-19.4s3.92,10.3,10,10.72,19.88-9.72,19.88-9.72Zm-73,10.85s.46-12.08,1.28-15.56l1.25,6.45,1.76,9.11Z" style="fill: #00FF88; transform-origin: 150.746px 162.343px;" id="elssc9xv2nqph" class="animable"></path><path d="M144.27,179l6.52-7.89,9.15-1.4,1.4,8.13-7,2.56s-3.37,4.06-10.1,3.36Z" style="fill: rgb(255, 139, 123); transform-origin: 152.79px 176.776px;" id="el3bsl7a0vjob" class="animable"></path><path d="M190.9,170.89l3.39-6.22,8.27-3.48,3.13,8.47-6.85,2.67s-1.79,3.94-4.55,3.43Z" style="fill: rgb(255, 139, 123); transform-origin: 198.295px 168.498px;" id="el3a4su6om3od" class="animable"></path><path d="M144.41,123.32a17.36,17.36,0,0,0,0,2.16c.1,1.37-.16,3.88,2.53,5.2-1.39,3-4.74,10.52-6.77,13.07-3.09-2.53-10.35-12.74-10.35-12.74s5.1-5.53,1.44-15.95c0,0-5.14-3.76-4.11-5.83,1.18-2.41,4.53-1.11,5.24-.09-.75-1.1-4.24-13.17,0-17.61,2.64-2.77,5.28-2.8,10.2-3H143c3.15-.11,5.49,0,5.49,0l0,0a21.87,21.87,0,0,1,2.81,3.77l0,0a28,28,0,0,1,4,12C156.23,114.21,154.28,122.24,144.41,123.32Z" style="fill: rgb(255, 139, 123); transform-origin: 141.261px 116.116px;" id="elvbr08kkob8m" class="animable"></path><path d="M147.13,111s-4.48,1.52-6.11-1.88" style="fill: none; stroke: rgb(38, 50, 56); stroke-linecap: round; stroke-linejoin: round; stroke-width: 0.5px; transform-origin: 144.075px 110.229px;" id="eln1o8n1qyji" class="animable"></path><path d="M141.72,96.7a4,4,0,0,0-3.66,2.14" style="fill: none; stroke: rgb(38, 50, 56); stroke-linecap: round; stroke-linejoin: round; transform-origin: 139.89px 97.7691px;" id="elptltsg1pju" class="animable"></path><path d="M153.12,95.67a4,4,0,0,0-2.85-1.3" style="fill: none; stroke: rgb(38, 50, 56); stroke-linecap: round; stroke-linejoin: round; transform-origin: 151.695px 95.02px;" id="el6mh94h5ckz5" class="animable"></path><path d="M149,109.16l-.88-7.49,4.41,5.66S152.1,109.28,149,109.16Z" style="fill: rgb(255, 86, 82); transform-origin: 150.325px 105.418px;" id="elcgmw2d03jcw" class="animable"></path><path d="M141.76,101.73c.05.76.5,1.35,1,1.32s.85-.68.79-1.45-.49-1.35-1-1.31S141.7,101,141.76,101.73Z" style="fill: rgb(38, 50, 56); transform-origin: 142.655px 101.67px;" id="el1k59yv0hgzb" class="animable"></path><path d="M150.48,100.48c.06.77.5,1.36,1,1.32s.85-.68.79-1.45-.5-1.35-1-1.31S150.43,99.72,150.48,100.48Z" style="fill: rgb(38, 50, 56); transform-origin: 151.376px 100.42px;" id="eld4fkkv8uui6" class="animable"></path><path d="M129.35,103.6s-5.11-6.85-.89-11.29c2.64-2.77,9.74-4.58,14.65-4.79C143,88.68,143.11,98.84,129.35,103.6Z" style="fill: rgb(38, 50, 56); transform-origin: 134.95px 95.56px;" id="elrygyp7tn1op" class="animable"></path><path d="M151.38,92.33A14.3,14.3,0,0,1,143,88.5l-.39-.41a26.23,26.23,0,0,1,5.88.42l0,0a21.87,21.87,0,0,1,2.81,3.77Z" style="fill: rgb(38, 50, 56); transform-origin: 146.995px 90.1988px;" id="el0iw5qhjmisf" class="animable"></path><g id="el7pxb1hosgvw"><path d="M144.44,125.48a11.47,11.47,0,0,1-5.54-3.71,15.26,15.26,0,0,0,5.51,1.55A17.36,17.36,0,0,0,144.44,125.48Z" style="opacity: 0.2; transform-origin: 141.67px 123.625px;" class="animable" id="elz74mmah48lf"></path></g><g id="elmsh210c052"><path d="M120.44,172.63l-1.25-6.45v-9.26S120.63,166.69,120.44,172.63Z" style="opacity: 0.2; transform-origin: 119.824px 164.775px;" class="animable" id="el2zg17vbclwf"></path></g></g><g id="freepik--character-2--inject-2" class="animable" style="transform-origin: 300.844px 246.783px;"><g id="elpyjovzl549b"><rect x="232.85" y="144.69" width="73.01" height="56.19" style="fill: #00FF88; transform-origin: 269.355px 172.785px; transform: rotate(-3.24deg);" class="animable" id="elxeodl84r1nj"></rect></g><g id="el5zhgf1om4ck"><rect x="232.85" y="144.69" width="73.01" height="56.19" style="opacity: 0.3; transform-origin: 269.355px 172.785px; transform: rotate(-3.24deg);" class="animable" id="elz1c5qftr0h"></rect></g><g id="elbzwshpsw5dh"><rect x="206.36" y="146.19" width="73.01" height="56.19" style="fill: #00FF88; transform-origin: 242.865px 174.285px; transform: rotate(-3.24deg);" class="animable" id="elz6jq4vlu0ch"></rect></g><g id="elbzkcnxovu7n"><rect x="206.36" y="146.19" width="73.01" height="56.19" style="fill: rgb(255, 255, 255); opacity: 0.3; transform-origin: 242.865px 174.285px; transform: rotate(-3.24deg);" class="animable" id="el86r3hr0dqpt"></rect></g><g id="el3ou0zkd24wj"><rect x="270.36" y="150.22" width="15.56" height="5.25" style="opacity: 0.3; transform-origin: 278.14px 152.845px; transform: rotate(-3.43363deg);" class="animable" id="elvozwgcp2wyk"></rect></g><g id="elvq2zy9s6om"><rect x="209.61" y="154.62" width="15.56" height="8.5" style="fill: rgb(255, 255, 255); opacity: 0.5; transform-origin: 217.39px 158.87px; transform: rotate(-3.24deg);" class="animable" id="el0g08rlkbp88a"></rect></g><g id="elgb6e00niv5m"><rect x="206.67" y="176.99" width="23.88" height="6.63" style="opacity: 0.3; transform-origin: 218.61px 180.305px; transform: rotate(-3.24deg);" class="animable" id="elgxct8e7ezd9"></rect></g><path d="M325.28,96.43l-4,5.1A8.66,8.66,0,0,0,325,103Z" style="fill: rgb(160, 39, 36); transform-origin: 323.28px 99.715px;" id="elil16ymxucbj" class="animable"></path><polygon points="394.32 409.21 382.7 408.55 380.34 398.64 379.05 393.21 378.57 391.21 387.51 390.6 388.15 390.55 390.05 396.3 394.32 409.21" style="fill: rgb(181, 91, 82); transform-origin: 386.445px 399.88px;" id="eldgoz0smp9v" class="animable"></polygon><path d="M327.5,410.84c.22.79-10.79-.62-10.79-.62l-.39-9.25-.3-7.14,0-.39h.09l11.18,1.11s0,3,0,6.41C327.31,405.34,327.37,410.41,327.5,410.84Z" style="fill: rgb(181, 91, 82); transform-origin: 321.762px 402.26px;" id="el8u92dkf2z5b" class="animable"></path><path d="M350.82,123.25s-15.7,4.25-14.54,1.17a15.81,15.81,0,0,0,.69-5.77c0-1.28-.16-2.19-.16-2.19-5.68.33-9.5-3.78-11.2-8.84-2.19-6.49-1.39-13.74,1.27-19.9.21-.5.81-2.62,1.34-2.88L334.38,82s6,3.93,9.12,6.37,5.63,13.78,5.63,22.6S350.82,123.25,350.82,123.25Z" style="fill: rgb(181, 91, 82); transform-origin: 337.582px 103.77px;" id="elmayh3tcb1p" class="animable"></path><path d="M324.81,94.56a1.36,1.36,0,0,0-1,1.25,1.33,1.33,0,0,0,.66,1.36Z" style="fill: rgb(38, 50, 56); transform-origin: 324.302px 95.865px;" id="elscxyfa3k1ci" class="animable"></path><path d="M324.81,89.48a3.34,3.34,0,0,1,1.85.51" style="fill: none; stroke: rgb(38, 50, 56); stroke-linecap: round; stroke-linejoin: round; transform-origin: 325.735px 89.7346px;" id="el48dedtl2ore" class="animable"></path><path d="M330.27,105.71s4.56,7.12,11.82,8.75,9.55-.89,10.52-5A22.25,22.25,0,0,1,358,99.09c2.51-2.59,1-9.62-2.19-15.4,0,0,3.42-2.87-2.09-5.63s-7.54,1.83-12.32-.85S343,73.64,338.49,82s-7,2.28-7.67,6S326.66,98.18,330.27,105.71Z" style="fill: rgb(38, 50, 56); transform-origin: 343.959px 95.1459px;" id="eltb9u4n3bpn7" class="animable"></path><path d="M330.82,89.73c-.45-.15-14.91-5.38-15.05-7.75s11.21,1.94,11.64,2.11h0l2.93,4.63Z" style="fill: #00FF88; transform-origin: 323.294px 85.5001px;" id="el01khus2bqqvx" class="animable"></path><path d="M360,95.46c-.14.43-1,3.28-1.37,3.28l-1.21-.07q-1.69-.14-3.36-.39c-1.23-.19-2.44-.43-3.63-.71h-.05c-1.21-.29-2.4-.61-3.56-1a76.49,76.49,0,0,1-8.37-3.07h0c-1.54-.67-2.9-1.32-4-1.88-2.25-1.12-3.59-1.91-3.59-1.91l-.2-.33-.82-1.29-1.75-2.77-.6-.93,0-.07a.41.41,0,0,1,0-.26c.06-1.06,2.23-4,2.62-4.5a18.86,18.86,0,0,1,6-5.22c3.22-1.78,6.85-1,10.27-.4A16.19,16.19,0,0,1,349.67,75l0,0,.67.29h0l.13.06c.12.07.25.12.37.18l.22.11a23.91,23.91,0,0,1,6.83,4.81C362.39,85.5,360.56,93.83,360,95.46Z" style="fill: #00FF88; transform-origin: 344.156px 85.991px;" id="elr0669haspjr" class="animable"></path><path d="M355.11,128.62s-.72-5-2.29-6-17.17-.85-19.6.86-2,7.3-2,7.3Z" style="fill: #00FF88; transform-origin: 343.15px 126.389px;" id="elzs11spe9sj" class="animable"></path><path d="M327.42,97.81s2.66-3.44,5.51-1.31.59,7.18-2.76,8.6c0,0-4.33,1.41-4.89-3S327.42,97.81,327.42,97.81Z" style="fill: rgb(181, 91, 82); transform-origin: 329.716px 100.559px;" id="elhvon558f99c" class="animable"></path><path d="M316.75,217.53s-5.95,56.93-7.61,83.11,4.44,93.13,4.44,93.13h14.47s1.66-66.51,4.16-86.46,10.8-47,10.8-47,5,42.81,10,60.27,21.24,70.8,21.24,70.8l16.66-3.2s-20-68.43-20-89.63.19-64-4.79-81Z" style="fill: #00FF88; transform-origin: 349.882px 305.65px;" id="elhuvcwhusuu5" class="animable"></path><g id="el2edtol9twko"><path d="M390.88,388.2l-16.65,3.21S358,338.07,353,320.61c-2.75-9.6-5.49-26.89-7.4-40.5C344,269,343,260.34,343,260.34s-8.31,27-10.81,47-4.15,86.46-4.15,86.46H313.58s-6.1-66.94-4.44-93.12,7.61-83.12,7.61-83.12h49.32c5,17,4.8,59.85,4.8,81S390.88,388.2,390.88,388.2Z" style="opacity: 0.3; transform-origin: 349.867px 305.68px;" class="animable" id="elkae67ycd2ic"></path></g><g id="elsmua4z6ywpn"><path d="M345.59,280.11C344,269,343,260.34,343,260.34L344,244.8Z" style="opacity: 0.3; transform-origin: 344.295px 262.455px;" class="animable" id="elx79w64ogsoe"></path></g><polygon points="312.01 390.99 329.35 390.99 328.5 398.13 312.69 398.13 312.01 390.99" style="fill: rgb(38, 50, 56); transform-origin: 320.68px 394.56px;" id="elmusel5vupc" class="animable"></polygon><polygon points="372.14 389.95 390.89 382.98 393.26 393.12 374.96 398.13 372.14 389.95" style="fill: rgb(38, 50, 56); transform-origin: 382.7px 390.555px;" id="eluka41s95vb" class="animable"></polygon><g id="elmefxz8vbu6"><polygon points="387.51 390.6 379.05 393.21 380.34 398.64 390.05 396.3 387.51 390.6" style="opacity: 0.2; transform-origin: 384.55px 394.62px;" class="animable" id="elhb86qbud9qv"></polygon></g><g id="elwbju4g3n3o"><path d="M327.29,401h-11l-.3-7.14.07-.38,11.18,1.11S327.27,397.55,327.29,401Z" style="opacity: 0.2; transform-origin: 321.64px 397.24px;" class="animable" id="elxh672yex1d"></path></g><path d="M311,414.39c.07.19-6.92-3.88-5-5.78S311,414.39,311,414.39Z" style="fill: none; stroke: #00FF88; stroke-miterlimit: 10; transform-origin: 308.333px 411.352px;" id="el6q080i4gnz9" class="animable"></path><path d="M312,414.1c-.05.2-3.9-6.91-1.28-7.54S312,414.1,312,414.1Z" style="fill: none; stroke: #00FF88; stroke-miterlimit: 10; transform-origin: 311.075px 410.315px;" id="elzuz6wefdoe" class="animable"></path><path d="M381.09,410.07s-2.29-7.37-4.51-6.16S381.09,410.07,381.09,410.07Z" style="fill: none; stroke: #00FF88; stroke-miterlimit: 10; transform-origin: 378.61px 406.923px;" id="el0keo72pz2om" class="animable"></path><path d="M380.47,410.71S375.3,405,373.79,407,380.47,410.71,380.47,410.71Z" style="fill: none; stroke: #00FF88; stroke-miterlimit: 10; transform-origin: 377.037px 408.643px;" id="elghchf83tf" class="animable"></path><path d="M394.75,408.53H382.33s-7.18,4.32-10.33,4.72-5,.59-4.91,2.85,2,2.46,8.45,2.36,19.25.69,20.64-.59S396.69,414.18,394.75,408.53Z" style="fill: rgb(38, 50, 56); transform-origin: 381.973px 413.57px;" id="elmnr9dlz2ao" class="animable"></path><path d="M327.5,410.07l-12,.09s-7.18,4.32-10.32,4.72-5,.59-4.92,2.85,2,2.46,8.46,2.36,17.85.83,19.24-.45S328.58,416.26,327.5,410.07Z" style="fill: rgb(38, 50, 56); transform-origin: 314.484px 415.197px;" id="el3524evky8mh" class="animable"></path><g id="el0o7tjf4jht5o"><path d="M327.41,84.09c.31,1.59.63,2.81,3.26,5.58-3.34-1.24-14.78-5.66-14.9-7.69S324.53,83,327.41,84.09Z" style="opacity: 0.3; transform-origin: 323.219px 85.4844px;" class="animable" id="elaxo6t6u8hk"></path></g><g id="ele02t432oqln"><path d="M327.41,84.34a.41.41,0,0,1,0-.26h0s0,.11,0,.32Z" style="opacity: 0.3; transform-origin: 327.399px 84.24px;" class="animable" id="elv5lqs1n6c5p"></path></g><g id="el29u4x0dydaa"><path d="M330.82,89.73l-.31-.12a.67.67,0,0,1,.06-.12Z" style="opacity: 0.3; transform-origin: 330.665px 89.61px;" class="animable" id="elgixf03xb738"></path></g><path d="M360,95.46c-.14.43-1,3.28-1.37,3.28l-1.21-.07q-1.69-.14-3.36-.39c-1.23-.19-2.44-.43-3.63-.71h-.05c-1.21-.29-2.4-.61-3.56-1a76.49,76.49,0,0,1-8.37-3.07h0c-1.54-.67-2.9-1.32-4-1.88-2.25-1.12-3.59-1.91-3.59-1.91l-.2-.33-.82-1.29-1.75-2.77-.6-.93,0-.07a.41.41,0,0,1,0-.26c.06-1.06,2.23-4,2.62-4.5a18.86,18.86,0,0,1,6-5.22c3.22-1.78,6.85-1,10.27-.4A16.19,16.19,0,0,1,349.67,75l0,0,.67.29h0l.13.06c.12.07.25.12.37.18l.22.11a23.91,23.91,0,0,1,6.83,4.81C362.39,85.5,360.56,93.83,360,95.46Z" style="fill: #00FF88; transform-origin: 344.156px 85.991px;" id="elitihqemhfar" class="animable"></path><g id="elll10m3scgg"><path d="M340.33,115.5a44.23,44.23,0,0,1-3.36,3.15c0-1.28-.16-2.19-.16-2.19A15.88,15.88,0,0,0,340.33,115.5Z" style="opacity: 0.2; transform-origin: 338.57px 117.075px;" class="animable" id="elkx747uhkp9"></path></g><path d="M316.75,218.09V166.87l-9.35-3.81s1.79-27.33,15.1-31.64,37-6.12,43.52,0c4.12,3.89,4.67,10.13,4.82,15.48.32,10.9-2.53,21.56-3.16,32.4-.5,8.82-.8,17.64-1,26.47,0,.68-.26,12.32-.28,12.32Z" style="fill: rgb(38, 50, 56); transform-origin: 339.132px 172.785px;" id="elv1yopjddu8" class="animable"></path><path d="M321.87,168.62s-6.92,22.86-13.76,24.29-30.2-11.32-30.2-11.32l-10.43,0L266,172.42s9.71-3.6,16.18.71c0,0,15.11,6.59,20.14,8.51L309.61,164Z" style="fill: rgb(181, 91, 82); transform-origin: 293.935px 178.511px;" id="el941eiahs8ia" class="animable"></path></g><defs>     <filter id="active" height="200%">         <feMorphology in="SourceAlpha" result="DILATED" operator="dilate" radius="2"></feMorphology>                <feFlood flood-color="#32DFEC" flood-opacity="1" result="PINK"></feFlood>        <feComposite in="PINK" in2="DILATED" operator="in" result="OUTLINE"></feComposite>        <feMerge>            <feMergeNode in="OUTLINE"></feMergeNode>            <feMergeNode in="SourceGraphic"></feMergeNode>        </feMerge>    </filter>    <filter id="hover" height="200%">        <feMorphology in="SourceAlpha" result="DILATED" operator="dilate" radius="2"></feMorphology>                <feFlood flood-color="#ff0000" flood-opacity="0.5" result="PINK"></feFlood>        <feComposite in="PINK" in2="DILATED" operator="in" result="OUTLINE"></feComposite>        <feMerge>            <feMergeNode in="OUTLINE"></feMergeNode>            <feMergeNode in="SourceGraphic"></feMergeNode>        </feMerge>            <feColorMatrix type="matrix" values="0   0   0   0   0                0   1   0   0   0                0   0   0   0   0                0   0   0   1   0 "></feColorMatrix>    </filter></defs></svg>